<svg xmlns="http://www.w3.org/2000/svg" width="512" height="512" viewBox="0 0 40 40" fill="none">
    <path d="M25.5396 15.4121L17.9206 10.7964L10.1636 15.4121L17.7974 19.808L25.5396 15.4121Z" fill="#E72E9D"/>
    <path d="M18.0586 28.7715L25.7532 24.6728L25.9803 15.5347L17.9963 20.0233L18.0586 28.7715Z" fill="#20B1F9"/>
    <path d="M18.038 28.9434L17.7281 20.008L10.017 15.564L9.70984 24.362L18.038 28.9434Z" fill="#095198"/>
    <path d="M34.1069 29.6635V10.3335" stroke="black" stroke-width="0.932942" stroke-miterlimit="10"/>
    <path d="M1.60095 29.6608V10.3359" stroke="black" stroke-width="0.932942" stroke-miterlimit="10"/>
    <path d="M17.6234 38.9941L34.3227 29.2705" stroke="black" stroke-width="0.932942" stroke-miterlimit="10"/>
    <path d="M1.37451 10.7329L18.0899 1" stroke="black" stroke-width="0.932942" stroke-miterlimit="10"/>
    <path d="M18.0934 39L1.37793 29.2671" stroke="black" stroke-width="0.932942" stroke-miterlimit="10"/>
    <path d="M17.8726 20.0422L33.9484 10.6816" stroke="black" stroke-width="0.932942" stroke-miterlimit="10"/>
    <path d="M17.8272 20.0425L1.755 10.6841" stroke="black" stroke-width="0.932942" stroke-miterlimit="10"/>
    <path d="M34.339 10.7371L17.6249 1.00488" stroke="black" stroke-width="0.932942" stroke-miterlimit="10"/>
    <path d="M25.7545 24.8292V15.2622" stroke="black" stroke-width="0.932942" stroke-miterlimit="10"/>
    <path d="M9.95386 24.8364V15.272" stroke="black" stroke-width="0.932942" stroke-miterlimit="10"/>
    <path d="M17.9324 29.1254L25.9867 24.4355" stroke="black" stroke-width="0.932942" stroke-miterlimit="10"/>
    <path d="M9.79517 15.5273L18.076 10.7056" stroke="black" stroke-width="0.932942" stroke-miterlimit="10"/>
    <path d="M17.777 29.1263L9.72424 24.4375" stroke="black" stroke-width="0.932942" stroke-miterlimit="10"/>
    <path d="M25.9095 15.5255L17.6285 10.7036" stroke="black" stroke-width="0.932942" stroke-miterlimit="10"/>
    <path d="M18.4975 4.35491C18.4975 4.71272 18.2075 5.00278 17.8497 5.00278C17.4918 5.00278 17.2018 4.71272 17.2018 4.35491C17.2018 3.99709 17.4918 3.70703 17.8497 3.70703C18.2075 3.70703 18.4975 3.99709 18.4975 4.35491Z" fill="black"/>
    <path d="M18.4975 7.60491C18.4975 7.96272 18.2075 8.25278 17.8497 8.25278C17.4918 8.25278 17.2018 7.96272 17.2018 7.60491C17.2018 7.24709 17.4918 6.95703 17.8497 6.95703C18.2075 6.95703 18.4975 7.24709 18.4975 7.60491Z" fill="black"/>
    <path d="M5.16697 27.7406C5.16697 28.0985 4.87691 28.3885 4.51909 28.3885C4.16128 28.3885 3.87122 28.0985 3.87122 27.7406C3.87122 27.3829 4.16128 27.0928 4.51909 27.0928C4.87691 27.0928 5.16697 27.3829 5.16697 27.7406Z" fill="black"/>
    <path d="M7.90378 26.2065C7.90378 26.5643 7.61372 26.8543 7.25591 26.8543C6.89809 26.8543 6.60803 26.5643 6.60803 26.2065C6.60803 25.8487 6.89809 25.5586 7.25591 25.5586C7.61372 25.5586 7.90378 25.8487 7.90378 26.2065Z" fill="black"/>
    <path d="M31.8908 27.7201C31.8908 28.078 31.6008 28.368 31.243 28.368C30.8852 28.368 30.5951 28.078 30.5951 27.7201C30.5951 27.3623 30.8852 27.0723 31.243 27.0723C31.6008 27.0723 31.8908 27.3623 31.8908 27.7201Z" fill="black"/>
    <path d="M29.1651 26.186C29.1651 26.5438 28.8751 26.8338 28.5173 26.8338C28.1594 26.8338 27.8694 26.5438 27.8694 26.186C27.8694 25.8282 28.1594 25.5381 28.5173 25.5381C28.8751 25.5381 29.1651 25.8282 29.1651 26.186Z" fill="black"/>
    <path d="M17.8275 19.9678V38.849" stroke="black" stroke-width="0.932942" stroke-miterlimit="10"/>
</svg>